<?xml version="1.0" encoding="UTF-8"?>
<!DOCTYPE svg PUBLIC "-//W3C//DTD SVG 1.1//EN" "http://www.w3.org/Graphics/SVG/1.1/DTD/svg11.dtd">
<svg version="1.1" xmlns="http://www.w3.org/2000/svg" xmlns:xlink="http://www.w3.org/1999/xlink" x="0" y="0" width="1000" height="1000" viewBox="0, 0, 1000, 1000">
  <g id="Layer_1">
    <path d="M891.889,704.205 C891.889,860.935 766.767,987.625 608.47,987.625 C451.74,987.625 326.618,864.069 326.618,704.205 C326.618,628.975 355.091,562.496 400.281,512.604 L208.679,704.205 L108.111,603.637 L324.267,389.832 C353.523,360.576 368.543,322.569 368.543,280.644 L368.543,12.375 L510.253,12.375 L510.253,280.644 C510.253,362.927 480.997,432.672 423.921,489.617 L417.521,495.886 C467.413,449.912 535.46,422.223 608.339,422.223 C769.248,422.354 891.889,549.827 891.889,704.205 z M763.632,704.205 C763.632,620.225 694.018,552.178 608.47,552.178 C522.138,552.178 454.875,623.49 454.875,704.205 C454.875,787.272 522.922,857.8 608.47,857.8 C697.153,857.8 763.632,785.835 763.632,704.205 z" fill="#000000"/>
  </g>
</svg>
